<?xml version="1.0" encoding="UTF-8"?>
<svg id="svg8" width="64" height="64" version="1.1" viewBox="0 0 16.933 16.933" xmlns="http://www.w3.org/2000/svg" xmlns:cc="http://creativecommons.org/ns#" xmlns:dc="http://purl.org/dc/elements/1.1/" xmlns:rdf="http://www.w3.org/1999/02/22-rdf-syntax-ns#">
 <defs id="defs8">
  <filter id="filter1381" x="-.066496" y="-.045694" width="1.1339" height="1.0919" color-interpolation-filters="sRGB">
   <feGaussianBlur id="feGaussianBlur1383" stdDeviation="2.9395542"/>
  </filter>
 </defs>
 <metadata id="metadata2">
  <rdf:RDF>
   <cc:Work rdf:about="">
    <dc:format>image/svg+xml</dc:format>
    <dc:type rdf:resource="http://purl.org/dc/dcmitype/StillImage"/>
    <dc:title/>
    <dc:creator>
     <cc:Agent>
      <dc:title>SPDX-FileCopyrightText: Mirian Margiani</dc:title>
     </cc:Agent>
    </dc:creator>
    <dc:date>2019-2021</dc:date>
    <cc:license rdf:resource="http://creativecommons.org/licenses/by-sa/4.0/"/>
   </cc:Work>
   <cc:License rdf:about="http://creativecommons.org/licenses/by-sa/4.0/">
    <cc:permits rdf:resource="http://creativecommons.org/ns#Reproduction"/>
    <cc:permits rdf:resource="http://creativecommons.org/ns#Distribution"/>
    <cc:requires rdf:resource="http://creativecommons.org/ns#Notice"/>
    <cc:requires rdf:resource="http://creativecommons.org/ns#Attribution"/>
    <cc:permits rdf:resource="http://creativecommons.org/ns#DerivativeWorks"/>
    <cc:requires rdf:resource="http://creativecommons.org/ns#ShareAlike"/>
   </cc:License>
  </rdf:RDF>
 </metadata>
 <path id="path2179" d="m-3.1427 14.3c0.63156-0.66327 1.213-1.7257 1.3423-2.8473 0.12936-1.1216-0.19355-2.3022-0.65454-3.4587-0.46099-1.1564-1.06-2.2886-1.5301-3.2687-0.47004-0.98008-0.81168-1.8096-1.1521-2.6362-0.34044 0.82659-0.68208 1.6561-1.1521 2.6362-0.47004 0.98008-1.0691 2.1122-1.5301 3.2687-0.46098 1.1564-0.78389 2.337-0.65453 3.4587 0.12936 1.1216 0.71077 2.1841 1.3423 2.8473 0.63156 0.66327 1.3128 0.5724 1.9944 0.83662 0.68156-0.26422 1.3628-0.17335 1.9944-0.83662z" fill="none" stroke="#fff" stroke-width=".47624"/>
 <path id="path2181" d="m-3.6166 5.5144c0.087599 0.645 0.17516 1.2897 0.13438 1.9188-0.040778 0.62906-0.20981 1.2425-0.4402 1.6729-0.23039 0.43037-0.52218 0.6778-0.80279 0.84543-0.28061 0.16763-0.55015 0.25548-0.85827 0.34368-0.30812 0.0882-0.65483 0.17674-0.98255 0.23-0.32772 0.05325-0.64291 0.07155-0.91969 0.05647-0.27678-0.01507-0.51837-0.06339-0.67716-0.12137-0.15879-0.05798-0.23474-0.12577-0.31093-0.19378" fill="none" stroke="#fff" stroke-linecap="round" stroke-linejoin="round" stroke-width=".44978"/>
 <path id="path2185" d="m-2.916 7.0143c0.071433 0.42451 0.14282 0.84875 0.11852 1.3491-0.024297 0.50037-0.14419 1.0769-0.2924 1.5279-0.14822 0.45102-0.32474 0.77655-0.55105 1.0578-0.22631 0.28128-0.50245 0.51838-0.81736 0.70348-0.31491 0.18509-0.66867 0.3182-1.0104 0.43344-0.34173 0.11524-0.67142 0.2126-1.0245 0.25969-0.35313 0.04709-0.72976 0.04386-0.98877 0.03298s-0.41023-0.03071-0.5568-0.04994" fill="none" stroke="#fff" stroke-linecap="round" stroke-linejoin="round" stroke-width=".44978"/>
 <path id="path2189" d="m-2.2377 8.718c0.013344 0.32135 0.026677 0.64244-0.050649 1.2353-0.077326 0.59285-0.24526 1.4575-0.57577 2.03s-0.82371 0.85301-1.2883 1.1007c-0.46456 0.24774-0.90049 0.4627-1.3608 0.64647-0.4603 0.18377-0.95937 0.34088-1.4514 0.49576" fill="none" stroke="#fff" stroke-linecap="round" stroke-linejoin="round" stroke-width=".44978"/>
 <path id="path2193" d="m-3.077 14.096c-0.3484-0.02226-0.69703-0.04453-0.97342-0.15022-0.27639-0.10569-0.48056-0.295-0.68498-0.48454" fill="none" stroke="#fff" stroke-linecap="round" stroke-linejoin="round" stroke-width=".44978"/>
 <path id="path2197" d="m-5.6029 13.717c-0.27243-0.11692-0.54513-0.23396-0.7538-0.44033s-0.35314-0.5022-0.49774-0.79833" fill="none" stroke="#fff" stroke-linecap="round" stroke-linejoin="round" stroke-width=".44978"/>
 <path id="path2201" d="m-4.9206 11.831c-0.16823-0.17525-0.33668-0.35074-0.46912-0.58903-0.13244-0.23829-0.22872-0.53941-0.32509-0.84082" fill="none" stroke="#fff" stroke-linecap="round" stroke-linejoin="round" stroke-width=".44978"/>
 <g id="g428" transform="matrix(.23693 0 0 .23798 -1.2777 -1.3677)" stroke-width="1.1142">
  <g id="g1357" transform="matrix(1.1664,0,0,1.1664,-240.93,-142.3)">
   <path id="path1311" transform="matrix(.27345 0 0 .27345 214.46 130.07)" d="m112.53 15.197 45.793 79.316v43.91l-14.106 24.432-38.017 21.949s-34.733-9.3067-34.733-9.3067l-29.798-51.612 20.95-36.286 9.7465-36.374 40.164-36.028z" fill="none" filter="url(#filter1381)" stroke="#000" stroke-linecap="round" stroke-linejoin="bevel" stroke-width="1.6214"/>
   <g id="g1353" transform="matrix(.27345 0 0 .27345 265.07 117.77)" stroke-width="1.284">
    <path id="path1313" d="m-73.027 63.044c-6.1937 15.846-12.055 31.842-17.649 47.91 7.895 6.378 16.404 12.197 24.635 18.219 2.6263 1.7196 5.3786 4.1292 7.9933 5.4354-4.6715-23.794-9.4934-47.569-14.805-71.229-0.0627-0.06087-0.0231-0.38573-0.17419-0.33575z" fill="#fff"/>
    <path id="path1315" d="m-70.314 65.413c4.3748 22.924 9.256 45.838 14.05 68.711 0.30026 0.92949 0.0345 2.6255 1.5804 2.1669 8.6415 0.53172 17.378 1.1479 25.977 1.3606-0.57067-2.6632-2.6541-4.9245-3.8164-7.3972-12.6-21.601-24.793-43.452-37.757-64.833l-0.027-0.0092z" fill="#fafafa"/>
    <path id="path1317" d="m-55.022 138.19c-1.0075 0.0435-0.0497 1.8979-0.38921 2.4837 0.34915 10.561 0.46015 21.153 1.4292 31.679 8.5512-10.816 17.097-21.945 25.36-33.015-8.7766-0.63994-17.6-0.94215-26.4-1.1474z" fill="#f5f5f5"/>
    <path id="path1319" d="m-57.529 138.21c-11.199 2.0214-22.532 3.9756-33.597 6.3496 2.7844 12.013 5.5454 24.06 8.7204 35.966 0.96582 0.62438 2.477-0.5542 3.6003-0.5416 7.5951-1.9277 15.335-3.6486 22.799-5.8862-0.16276-11.96-0.58916-23.94-1.3805-35.872-0.0339-0.0491-0.10022-5e-3 -0.14218-0.0149z" fill="#d1d1d1"/>
    <path id="path1321" d="m-91.038 113.14c-0.2169 9.9322-0.42917 19.919-0.51397 29.82 10.84-2.244 21.963-4.0091 32.659-6.4164-10.569-7.972-21.367-15.811-32.145-23.404z" fill="#d2d2d2"/>
    <path id="path1323" d="m-98.409 113.28c-1.358 0.7497-5.5641-0.12675-5.1913 1.6224 3.5208 8.21 6.8066 16.666 10.553 24.697 0.18956-9.0628 0.13329-18.186 0.07962-27.222-1.8139 0.3007-3.6279 0.6014-5.4418 0.9021z" fill="#9f9f9f"/>
    <path id="path1325" d="m-77.344 69.139c-8.6046 13.982-17.132 28.028-25.336 42.247-0.26633 0.38732-0.57957 1.325 0.32558 0.87581 3.2232-0.59026 6.7166-0.81537 9.7661-1.7353 5.186-13.753 10.429-27.567 15.275-41.398z" fill="#c3c3c3"/>
    <path id="path1327" d="m-76.796 64.269c-11.793 10.149-23.318 20.636-34.655 31.294 0.19054 2.0379 1.5838 4.1283 2.2448 6.1504 1.5571 3.2089 2.5231 6.837 4.3771 9.8429 9.5411-15.613 18.862-31.425 28.093-47.243 4e-3 -0.04808-0.0335-0.05349-0.0597-0.04407z" fill="#e3e3e3"/>
    <path id="path1329" d="m-112.77 98.417c-3.066 11.061-5.9664 22.184-8.9457 33.273 0.9393 6.4986 1.7199 13.162 2.7561 19.559 4.2375-12.668 9.1058-25.148 12.788-37.989-1.8451-5.0674-3.9821-10.129-6.5614-14.852z" fill="#aaa"/>
    <path id="path1331" d="m-105 116.27c-4.6256 12.592-9.0361 25.3-13.124 38.071 10.92 8.5922 22.076 16.932 33.432 24.941-2.3734-11.546-5.5086-23.148-8.2277-34.7-3.868-9.4829-7.8049-18.977-12.027-28.314z" fill="#c3c3c3"/>
    <path id="path1333" d="m-118.14 156.73c-0.90207 4.1705-0.51655 8.6383-0.79832 12.917-0.09 4.9089-0.25434 9.8546-0.2744 14.741 11.077-0.67971 22.127-1.9787 33.156-3.2324 0.264-0.47885-1.4061-1.141-1.7234-1.6263-10.029-7.7042-20.036-15.53-30.36-22.799z" fill="#d7d7d7"/>
    <path id="path1335" d="m-123.28 134.77c-6.5271 10.908-12.837 21.995-19.156 33.007 7.0356 5.0238 13.688 10.639 21.024 15.214 1.1674 0.35222 0.29914-1.927 0.65553-2.4571 0.25772-8.9004 0.56636-17.826 0.49077-26.718-1.0147-6.3313-1.4447-12.85-2.9882-19.049z" fill="#cfcfcf"/>
    <path id="path1337" d="m-140.16 171.71c8.6503 15.395 17.344 30.786 26.404 45.943 0.62161 0.66535 1.1352-1.4483 1.6735-1.5908 1.6447-2.1628 3.3062-4.3336 4.8965-6.5246-4.4976-7.8587-8.9878-15.723-13.49-23.578-6.4842-4.7575-12.793-9.7891-19.448-14.295z" fill="#a3a3a3"/>
    <path id="path1339" d="m-84.415 182.97c-11.329 0.90164-22.714 1.8445-33.955 3.3426 3.8718 7.7127 8.4188 15.096 12.625 22.639 8.558 5.9449 16.997 12.339 25.671 17.96-0.0718-5.6637-0.99187-11.369-1.3383-17.049-0.86777-8.947-1.3638-18.053-2.6107-26.894-0.13001-0.0143-0.26112 0.013-0.39098 7.9e-4z" fill="#cfcfcf"/>
    <path id="path1341" d="m-106.04 210.9c-2.2605 2.5696-4.2552 5.4614-6.2323 8.2064 9.4322 2.4223 18.796 5.1981 28.252 7.4735 0.66433-0.27176-1.1202-0.91111-1.23-1.2114-6.8988-4.86-13.773-9.8-20.79-14.468z" fill="#afafaf"/>
    <path id="path1343" d="m-81.873 183.66c0.89974 13.845 2.1054 27.757 3.5046 41.591 4.2932-10.131 8.76-20.413 13.301-30.525 1.1586-1.4225-1.2989-1.7177-1.9716-2.4638-4.904-2.9256-9.7749-5.967-14.834-8.6029z" fill="#8b8b8b"/>
    <path id="path1345" d="m-62.974 194.88c-3.5588 6.1087-6.0643 12.854-8.9729 19.313-1.6148 4.0981-3.6858 8.2228-4.9639 12.344 2.7115-0.95827 5.1999-2.9263 7.8201-4.2407 8.7666-5.1259 17.808-10.097 26.343-15.43-6.6145-4.1838-13.363-8.2386-20.227-11.987z" fill="#bfbfbf"/>
    <path id="path1347" d="m-54.774 177.31c-2.7248 4.9914-5.2349 10.185-7.3477 15.456 5.565 4.2515 11.84 7.567 17.859 11.15 0.28466 0.24839 1.597 0.79493 1.0699-0.11303-3.7876-8.8441-7.5191-17.837-11.581-26.493z" fill="#bcbcbc"/>
    <path id="path1349" d="m-56.806 176.39c-7.8756 1.7372-15.881 3.4981-23.572 5.7098 5.203 3.6585 10.797 6.9242 16.391 9.9047 2.7561-5.0081 5.2777-10.251 7.2986-15.59-0.0234-0.0456-0.081-0.0224-0.11729-0.0242z" fill="#989898"/>
    <path id="path1351" d="m-40.9 158.09c-4.3043 5.6488-8.7328 11.224-12.888 16.974 4.211 10.052 8.5863 20.139 12.994 30.046 4.34-7.5199 8.6927-15.035 13.024-22.558-0.1043-13.705-0.0423-27.53-0.25023-41.161-4.2932 5.5662-8.5865 11.132-12.88 16.699z" fill="#ededed"/>
   </g>
   <path id="path1355" d="m245.23 134.23 12.522 21.689v12.007l-3.8572 6.6809-10.396 6.0021-9.4979-2.545-8.1484-14.113s5.7288-9.9226 5.7288-9.9226l2.6652-9.9467 10.983-9.8519z" fill="none" stroke="#b0b0b0" stroke-linecap="round" stroke-linejoin="bevel" stroke-width=".44338"/>
  </g>
 </g>
</svg>
