<?xml version="1.0" encoding="UTF-8"?>
<!-- Created with Inkscape (http://www.inkscape.org/) -->
<svg id="svg8" width="64" height="64" version="1.1" viewBox="0 0 64 64" xmlns="http://www.w3.org/2000/svg" xmlns:cc="http://creativecommons.org/ns#" xmlns:dc="http://purl.org/dc/elements/1.1/" xmlns:rdf="http://www.w3.org/1999/02/22-rdf-syntax-ns#">
 <metadata id="metadata5">
  <rdf:RDF>
   <cc:Work rdf:about="">
    <dc:format>image/svg+xml</dc:format>
    <dc:type rdf:resource="http://purl.org/dc/dcmitype/StillImage"/>
    <dc:creator>
     <cc:Agent>
      <dc:title>Mirian Margiani</dc:title>
     </cc:Agent>
    </dc:creator>
    <cc:license rdf:resource="http://creativecommons.org/licenses/by-nc-sa/4.0/"/>
    <dc:date>2025</dc:date>
   </cc:Work>
   <cc:License rdf:about="http://creativecommons.org/licenses/by-nc-sa/4.0/">
    <cc:permits rdf:resource="http://creativecommons.org/ns#Reproduction"/>
    <cc:permits rdf:resource="http://creativecommons.org/ns#Distribution"/>
    <cc:requires rdf:resource="http://creativecommons.org/ns#Notice"/>
    <cc:requires rdf:resource="http://creativecommons.org/ns#Attribution"/>
    <cc:prohibits rdf:resource="http://creativecommons.org/ns#CommercialUse"/>
    <cc:permits rdf:resource="http://creativecommons.org/ns#DerivativeWorks"/>
    <cc:requires rdf:resource="http://creativecommons.org/ns#ShareAlike"/>
   </cc:License>
  </rdf:RDF>
 </metadata>
 <g id="layer1">
  <g id="g1" transform="translate(-16.787 -5.2512)" fill="none" stroke="#fff" stroke-width="2">
   <path id="path295-7" d="m54.859 14.502c0.20285 1.5942-0.38557 3.4281-1.1589 5.2424-1.0793 2.5323-2.5194 5.0275-4.7344 7.8945-2.215 2.867-5.2028 6.1046-8.8145 7.8066-1.5666 0.73827-3.2516 1.1866-4.8528 1.279" style="paint-order:stroke fill markers"/>
   <path id="path296-5" d="m48.007 12.006c-10.484 1.9492-10.806 17.614-13.324 25.646-3.5477 8.0266-3.8876 10.266 0.87305 16.676 1.6393 2.4371 16.05 8.4514 19.801 8.1621 8.7261-1.0752 10.498-17.153 10.18-20.025-0.48176-4.3421-2.3973-7.7161-2.1973-13.387-0.11766-6.2095-4.941-10.65-8.7227-15.064-1.1126-0.9994-4.0762-2.1005-6.6094-2.0078z"/>
   <path id="path297-9" d="m45.829 38.945c0.29972 1.6498 0.57585 3.3167 0.88086 4.9688 0.49815 2.6984 1.0786 5.3541 0.04102 7.9902-0.90522 2.2992-3.0423 4.5832-5.2539 6.1484"/>
   <path id="path298-2" d="m42.733 33.916c-0.0038 0.73294 0.11799 1.4068 0.4043 2.0469 0.78876 1.7643 2.8237 3.2593 4.9824 4.3594 2.1587 1.1001 4.4423 1.8051 7.8672 2.2617 2.8984 0.38643 6.6136 0.59355 9.5117-0.11906" style="paint-order:stroke fill markers"/>
  </g>
 </g>
</svg>
